<mxfile host="app.diagrams.net" agent="Mozilla/5.0 (Windows NT 10.0; Win64; x64) AppleWebKit/537.36 (KHTML, like Gecko) Chrome/131.0.0.0 Safari/537.36" version="25.0.3">
  <diagram name="Strona-1" id="E6KXFafCXUu6M6fowW8F">
    <mxGraphModel dx="1834" dy="1222" grid="0" gridSize="10" guides="1" tooltips="1" connect="1" arrows="1" fold="1" page="0" pageScale="1" pageWidth="827" pageHeight="1169" math="0" shadow="0">
      <root>
        <mxCell id="0" />
        <mxCell id="1" parent="0" />
        <mxCell id="DlXpJrdWX-oFE4-UT3Kw-1" value="Zwierzę" style="swimlane;fontStyle=1;align=center;verticalAlign=top;childLayout=stackLayout;horizontal=1;startSize=26;horizontalStack=0;resizeParent=1;resizeParentMax=0;resizeLast=0;collapsible=1;marginBottom=0;whiteSpace=wrap;html=1;" vertex="1" parent="1">
          <mxGeometry x="-37" y="-16" width="166" height="65" as="geometry" />
        </mxCell>
        <mxCell id="DlXpJrdWX-oFE4-UT3Kw-2" value="+ Imie: String&lt;div&gt;+ Wiek: int&lt;/div&gt;&lt;div&gt;&lt;br&gt;&lt;/div&gt;" style="text;strokeColor=none;fillColor=none;align=left;verticalAlign=top;spacingLeft=4;spacingRight=4;overflow=hidden;rotatable=0;points=[[0,0.5],[1,0.5]];portConstraint=eastwest;whiteSpace=wrap;html=1;" vertex="1" parent="DlXpJrdWX-oFE4-UT3Kw-1">
          <mxGeometry y="26" width="166" height="39" as="geometry" />
        </mxCell>
        <mxCell id="DlXpJrdWX-oFE4-UT3Kw-13" value="Ssak&lt;div&gt;&lt;br&gt;&lt;/div&gt;" style="swimlane;fontStyle=1;align=center;verticalAlign=top;childLayout=stackLayout;horizontal=1;startSize=26;horizontalStack=0;resizeParent=1;resizeParentMax=0;resizeLast=0;collapsible=1;marginBottom=0;whiteSpace=wrap;html=1;" vertex="1" parent="1">
          <mxGeometry x="296" y="-11" width="159" height="23" as="geometry">
            <mxRectangle x="230" y="15" width="62" height="41" as="alternateBounds" />
          </mxGeometry>
        </mxCell>
        <mxCell id="DlXpJrdWX-oFE4-UT3Kw-17" value="Extends" style="endArrow=block;endSize=16;endFill=0;html=1;rounded=0;fontSize=12;curved=1;entryX=1;entryY=0.25;entryDx=0;entryDy=0;exitX=0;exitY=0.5;exitDx=0;exitDy=0;" edge="1" parent="1" source="DlXpJrdWX-oFE4-UT3Kw-13" target="DlXpJrdWX-oFE4-UT3Kw-1">
          <mxGeometry x="-0.025" width="160" relative="1" as="geometry">
            <mxPoint x="328" y="239" as="sourcePoint" />
            <mxPoint x="227" y="72" as="targetPoint" />
            <mxPoint as="offset" />
          </mxGeometry>
        </mxCell>
        <mxCell id="DlXpJrdWX-oFE4-UT3Kw-18" value="Płaz" style="swimlane;fontStyle=1;align=center;verticalAlign=top;childLayout=stackLayout;horizontal=1;startSize=26;horizontalStack=0;resizeParent=1;resizeParentMax=0;resizeLast=0;collapsible=1;marginBottom=0;whiteSpace=wrap;html=1;" vertex="1" parent="1">
          <mxGeometry x="-319" y="49" width="152" height="26" as="geometry" />
        </mxCell>
        <mxCell id="DlXpJrdWX-oFE4-UT3Kw-24" value="Extends" style="endArrow=block;endSize=16;endFill=0;html=1;rounded=0;fontSize=12;curved=1;entryX=0.006;entryY=0.821;entryDx=0;entryDy=0;entryPerimeter=0;exitX=1;exitY=0.5;exitDx=0;exitDy=0;" edge="1" parent="1" source="DlXpJrdWX-oFE4-UT3Kw-18" target="DlXpJrdWX-oFE4-UT3Kw-2">
          <mxGeometry width="160" relative="1" as="geometry">
            <mxPoint x="-256" y="153.99" as="sourcePoint" />
            <mxPoint x="-30" y="45.0039999999999" as="targetPoint" />
            <Array as="points">
              <mxPoint x="-107" y="60" />
              <mxPoint x="-60" y="56" />
            </Array>
          </mxGeometry>
        </mxCell>
        <mxCell id="DlXpJrdWX-oFE4-UT3Kw-25" value="Gad" style="swimlane;fontStyle=1;align=center;verticalAlign=top;childLayout=stackLayout;horizontal=1;startSize=26;horizontalStack=0;resizeParent=1;resizeParentMax=0;resizeLast=0;collapsible=1;marginBottom=0;whiteSpace=wrap;html=1;" vertex="1" parent="1">
          <mxGeometry x="-314" y="-11" width="160" height="26" as="geometry" />
        </mxCell>
        <mxCell id="DlXpJrdWX-oFE4-UT3Kw-29" value="Extends" style="endArrow=block;endSize=16;endFill=0;html=1;rounded=0;fontSize=12;curved=1;entryX=0;entryY=0.25;entryDx=0;entryDy=0;exitX=1;exitY=0.5;exitDx=0;exitDy=0;" edge="1" parent="1" source="DlXpJrdWX-oFE4-UT3Kw-25" target="DlXpJrdWX-oFE4-UT3Kw-1">
          <mxGeometry width="160" relative="1" as="geometry">
            <mxPoint x="-216" y="8" as="sourcePoint" />
            <mxPoint x="-56" y="8" as="targetPoint" />
          </mxGeometry>
        </mxCell>
        <mxCell id="DlXpJrdWX-oFE4-UT3Kw-30" value="Ryba" style="swimlane;fontStyle=1;align=center;verticalAlign=top;childLayout=stackLayout;horizontal=1;startSize=26;horizontalStack=0;resizeParent=1;resizeParentMax=0;resizeLast=0;collapsible=1;marginBottom=0;whiteSpace=wrap;html=1;" vertex="1" parent="1">
          <mxGeometry x="294" y="58" width="161" height="25" as="geometry" />
        </mxCell>
        <mxCell id="DlXpJrdWX-oFE4-UT3Kw-35" value="Extends" style="endArrow=block;endSize=16;endFill=0;html=1;rounded=0;fontSize=12;curved=1;entryX=0.988;entryY=0.949;entryDx=0;entryDy=0;entryPerimeter=0;exitX=0;exitY=0.5;exitDx=0;exitDy=0;" edge="1" parent="1" source="DlXpJrdWX-oFE4-UT3Kw-30" target="DlXpJrdWX-oFE4-UT3Kw-2">
          <mxGeometry width="160" relative="1" as="geometry">
            <mxPoint x="230" y="99" as="sourcePoint" />
            <mxPoint x="390" y="99" as="targetPoint" />
          </mxGeometry>
        </mxCell>
        <mxCell id="DlXpJrdWX-oFE4-UT3Kw-39" value="Klatka" style="swimlane;fontStyle=1;align=center;verticalAlign=top;childLayout=stackLayout;horizontal=1;startSize=26;horizontalStack=0;resizeParent=1;resizeParentMax=0;resizeLast=0;collapsible=1;marginBottom=0;whiteSpace=wrap;html=1;" vertex="1" parent="1">
          <mxGeometry x="-79" y="159" width="160" height="64" as="geometry" />
        </mxCell>
        <mxCell id="DlXpJrdWX-oFE4-UT3Kw-40" value="+ Numer: int&lt;div&gt;+ Zwierzęta: List&amp;lt;Zwierzę&amp;gt;&lt;/div&gt;" style="text;strokeColor=none;fillColor=none;align=left;verticalAlign=top;spacingLeft=4;spacingRight=4;overflow=hidden;rotatable=0;points=[[0,0.5],[1,0.5]];portConstraint=eastwest;whiteSpace=wrap;html=1;" vertex="1" parent="DlXpJrdWX-oFE4-UT3Kw-39">
          <mxGeometry y="26" width="160" height="38" as="geometry" />
        </mxCell>
        <mxCell id="DlXpJrdWX-oFE4-UT3Kw-44" value="Zoo" style="swimlane;fontStyle=1;align=center;verticalAlign=top;childLayout=stackLayout;horizontal=1;startSize=26;horizontalStack=0;resizeParent=1;resizeParentMax=0;resizeLast=0;collapsible=1;marginBottom=0;whiteSpace=wrap;html=1;" vertex="1" parent="1">
          <mxGeometry x="200" y="159" width="186" height="64" as="geometry" />
        </mxCell>
        <mxCell id="DlXpJrdWX-oFE4-UT3Kw-45" value="+ Klatki: List&amp;lt;Klatka&amp;gt;&lt;div&gt;+ Pracownicy List&amp;lt;Pracownik&amp;gt;&lt;/div&gt;" style="text;strokeColor=none;fillColor=none;align=left;verticalAlign=top;spacingLeft=4;spacingRight=4;overflow=hidden;rotatable=0;points=[[0,0.5],[1,0.5]];portConstraint=eastwest;whiteSpace=wrap;html=1;" vertex="1" parent="DlXpJrdWX-oFE4-UT3Kw-44">
          <mxGeometry y="26" width="186" height="38" as="geometry" />
        </mxCell>
        <mxCell id="DlXpJrdWX-oFE4-UT3Kw-48" value="Osoba" style="swimlane;fontStyle=1;align=center;verticalAlign=top;childLayout=stackLayout;horizontal=1;startSize=26;horizontalStack=0;resizeParent=1;resizeParentMax=0;resizeLast=0;collapsible=1;marginBottom=0;whiteSpace=wrap;html=1;" vertex="1" parent="1">
          <mxGeometry x="-151" y="309" width="160" height="63" as="geometry" />
        </mxCell>
        <mxCell id="DlXpJrdWX-oFE4-UT3Kw-49" value="+ Imie: String&lt;div&gt;+ Nazwisko: String&lt;/div&gt;" style="text;strokeColor=none;fillColor=none;align=left;verticalAlign=top;spacingLeft=4;spacingRight=4;overflow=hidden;rotatable=0;points=[[0,0.5],[1,0.5]];portConstraint=eastwest;whiteSpace=wrap;html=1;" vertex="1" parent="DlXpJrdWX-oFE4-UT3Kw-48">
          <mxGeometry y="26" width="160" height="37" as="geometry" />
        </mxCell>
        <mxCell id="DlXpJrdWX-oFE4-UT3Kw-56" value="Pracownik" style="swimlane;fontStyle=1;align=center;verticalAlign=top;childLayout=stackLayout;horizontal=1;startSize=26;horizontalStack=0;resizeParent=1;resizeParentMax=0;resizeLast=0;collapsible=1;marginBottom=0;whiteSpace=wrap;html=1;" vertex="1" parent="1">
          <mxGeometry x="132" y="316" width="160" height="87" as="geometry" />
        </mxCell>
        <mxCell id="DlXpJrdWX-oFE4-UT3Kw-57" value="+ Stanowisko: String&lt;div&gt;+ Pensja: double&lt;/div&gt;&lt;div&gt;+ DataZatrudnienia: Date&lt;/div&gt;" style="text;strokeColor=none;fillColor=none;align=left;verticalAlign=top;spacingLeft=4;spacingRight=4;overflow=hidden;rotatable=0;points=[[0,0.5],[1,0.5]];portConstraint=eastwest;whiteSpace=wrap;html=1;" vertex="1" parent="DlXpJrdWX-oFE4-UT3Kw-56">
          <mxGeometry y="26" width="160" height="61" as="geometry" />
        </mxCell>
        <mxCell id="DlXpJrdWX-oFE4-UT3Kw-60" value="Extends" style="endArrow=block;endSize=16;endFill=0;html=1;rounded=0;fontSize=12;curved=1;exitX=-0.012;exitY=0.098;exitDx=0;exitDy=0;exitPerimeter=0;" edge="1" parent="1" target="DlXpJrdWX-oFE4-UT3Kw-49">
          <mxGeometry width="160" relative="1" as="geometry">
            <mxPoint x="128.99999999999991" y="362.97800000000007" as="sourcePoint" />
            <mxPoint x="278.92" y="115" as="targetPoint" />
          </mxGeometry>
        </mxCell>
        <mxCell id="DlXpJrdWX-oFE4-UT3Kw-62" value="" style="endArrow=diamondThin;endFill=1;endSize=24;html=1;rounded=0;fontSize=12;curved=1;exitX=1;exitY=0.25;exitDx=0;exitDy=0;entryX=0;entryY=0.25;entryDx=0;entryDy=0;" edge="1" parent="1" source="DlXpJrdWX-oFE4-UT3Kw-39" target="DlXpJrdWX-oFE4-UT3Kw-44">
          <mxGeometry width="160" relative="1" as="geometry">
            <mxPoint x="57" y="182" as="sourcePoint" />
            <mxPoint x="217" y="182" as="targetPoint" />
          </mxGeometry>
        </mxCell>
      </root>
    </mxGraphModel>
  </diagram>
</mxfile>
